<?xml version="1.0" encoding="iso-8859-1"?>
<!-- Uploaded to: SVG Repo, www.svgrepo.com, Generator: SVG Repo Mixer Tools -->
<svg height="50px" width="50px" version="1.1" id="Layer_1" xmlns="http://www.w3.org/2000/svg" xmlns:xlink="http://www.w3.org/1999/xlink" 
	 viewBox="0 0 512 512" xml:space="preserve">
<path style="fill:#00D7DF;" d="M495.304,233.739H294.957c-9.223,0-16.696-7.479-16.696-16.696V16.696
	C278.261,7.479,285.734,0,294.957,0C414.635,0,512,97.369,512,217.043C512,226.261,504.527,233.739,495.304,233.739z"/>
<path style="fill:#00B6BD;" d="M294.957,233.739h200.348c9.223,0,16.696-7.479,16.696-16.696c0-59.837-24.342-114.098-63.644-153.4
	L283.153,228.847C286.172,231.869,290.345,233.739,294.957,233.739z"/>
<path style="fill:#FFCD00;" d="M217.043,512C97.365,512,0,414.631,0,294.957S97.365,77.913,217.043,77.913
	c9.223,0,16.696,7.479,16.696,16.696v183.652h183.652c9.223,0,16.696,7.479,16.696,16.696C434.087,414.631,336.722,512,217.043,512z
	"/>
<path style="fill:#FFA733;" d="M217.043,512c119.679,0,217.043-97.369,217.043-217.043c0-9.217-7.473-16.696-16.696-16.696H233.739
	L63.644,448.356C102.944,487.658,157.204,512,217.043,512z"/>
</svg>