<?xml version="1.0" encoding="iso-8859-1"?>
<!-- Uploaded to: SVG Repo, www.svgrepo.com, Generator: SVG Repo Mixer Tools -->
<svg height="300px" width="300px" version="1.1" id="Layer_1" xmlns="http://www.w3.org/2000/svg" xmlns:xlink="http://www.w3.org/1999/xlink" 
	 viewBox="0 0 512 512" xml:space="preserve">
<g transform="translate(1 1)">
	<g>
		<path style="fill:#FFDD09;" d="M45.933,319c-2.56,0-4.267-0.853-5.973-2.56c-3.413-3.413-3.413-8.533,0-11.947l217.6-217.6
			c3.413-3.413,8.533-3.413,11.947,0s3.413,8.533,0,11.947L52.76,316.44C51.053,318.147,48.493,319,45.933,319z"/>
		<path style="fill:#FFDD09;" d="M493.933,451.267c-5.12,0-8.533-3.413-8.533-8.533v-307.2c0-5.12,3.413-8.533,8.533-8.533
			c5.12,0,8.533,3.413,8.533,8.533v307.2C502.467,447.853,499.053,451.267,493.933,451.267z"/>
		<path style="fill:#FFDD09;" d="M442.733,502.467h-0.853l-358.4-51.2c-4.267-0.853-7.68-5.12-6.827-9.387s5.12-7.68,9.387-6.827
			l358.4,51.2c4.267,0.853,7.68,5.12,6.827,9.387C450.413,499.053,447,502.467,442.733,502.467z"/>
		<path style="fill:#FFDD09;" d="M502.467,442.733c0,33.28-26.453,59.733-59.733,59.733S383,476.013,383,442.733
			S409.453,383,442.733,383S502.467,409.453,502.467,442.733"/>
	</g>
	<path style="fill:#FD9808;" d="M442.733,383c-4.267,0-8.533,0.853-12.8,1.707c26.453,5.973,46.933,29.867,46.933,58.027
		c0,28.16-20.48,52.053-46.933,58.027c4.267,0.853,8.533,1.707,12.8,1.707c33.28,0,59.733-26.453,59.733-59.733
		S476.013,383,442.733,383"/>
	<path style="fill:#FFDD09;" d="M92.867,280.6c-46.933,0-85.333,38.4-85.333,85.333s38.4,85.333,85.333,85.333
		s85.333-38.4,85.333-85.333S139.8,280.6,92.867,280.6"/>
	<path style="fill:#FD9808;" d="M92.867,280.6c-4.267,0-8.533,0.853-12.8,0.853c40.96,5.973,72.533,41.813,72.533,84.48
		s-31.573,78.507-72.533,84.48c4.267,0,8.533,0.853,12.8,0.853c46.933,0,85.333-38.4,85.333-85.333S139.8,280.6,92.867,280.6"/>
	<path style="fill:#54C9FD;" d="M92.867,400.067c-18.773,0-34.133-15.36-34.133-34.133S74.093,331.8,92.867,331.8
		S127,347.16,127,365.933S111.64,400.067,92.867,400.067"/>
	<path style="fill:#33A9F8;" d="M92.867,331.8c-4.267,0-8.533,0.853-12.8,2.56c12.8,5.12,21.333,17.067,21.333,31.573
		s-8.533,26.453-21.333,31.573c4.267,1.707,8.533,2.56,12.8,2.56c18.773,0,34.133-15.36,34.133-34.133S111.64,331.8,92.867,331.8"/>
	<path style="fill:#FFDD09;" d="M502.467,135.533c0,70.827-57.173,128-128,128s-128-57.173-128-128s57.173-128,128-128
		S502.467,64.707,502.467,135.533"/>
	<path style="fill:#FD9808;" d="M374.467,7.533c-2.56,0-5.973,0-8.533,0.853C432.493,12.653,485.4,68.12,485.4,135.533
		s-52.907,122.88-119.467,127.147c2.56,0,5.973,0.853,8.533,0.853c70.827,0,128-57.173,128-128S445.293,7.533,374.467,7.533"/>
	<path style="fill:#54C9FD;" d="M374.467,41.667c-52.053,0-93.867,41.813-93.867,93.867s41.813,93.867,93.867,93.867
		s93.867-41.813,93.867-93.867S426.52,41.667,374.467,41.667"/>
	<path style="fill:#33A9F8;" d="M374.467,41.667c-2.56,0-5.973,0-8.533,0.853c47.787,4.267,85.333,44.373,85.333,93.013
		s-37.547,88.747-85.333,93.013c2.56,0,5.973,0.853,8.533,0.853c52.053,0,93.867-41.813,93.867-93.867S426.52,41.667,374.467,41.667
		"/>
	<path style="fill:#FFDD09;" d="M374.467,161.133c-14.507,0-25.6-11.093-25.6-25.6s11.093-25.6,25.6-25.6
		c14.507,0,25.6,11.093,25.6,25.6S388.973,161.133,374.467,161.133"/>
	<path d="M374.467,272.067c-75.093,0-136.533-61.44-136.533-136.533S299.373-1,374.467-1S511,60.44,511,135.533
		S449.56,272.067,374.467,272.067z M374.467,16.067C308.76,16.067,255,69.827,255,135.533S308.76,255,374.467,255
		s119.467-53.76,119.467-119.467S440.173,16.067,374.467,16.067z"/>
	<path d="M442.733,511c-37.547,0-68.267-30.72-68.267-68.267s30.72-68.267,68.267-68.267S511,405.187,511,442.733
		S480.28,511,442.733,511z M442.733,391.533c-28.16,0-51.2,23.04-51.2,51.2c0,28.16,23.04,51.2,51.2,51.2
		c28.16,0,51.2-23.04,51.2-51.2C493.933,414.573,470.893,391.533,442.733,391.533z"/>
	<path d="M41.667,306.2c-2.56,0-4.267-0.853-5.973-2.56c-3.413-3.413-3.413-8.533,0-11.947l217.6-217.6
		c3.413-3.413,8.533-3.413,11.947,0c3.413,3.413,3.413,8.533,0,11.947l-217.6,217.6C45.933,305.347,44.227,306.2,41.667,306.2z"/>
	<path d="M502.467,451.267c-5.12,0-8.533-3.413-8.533-8.533v-307.2c0-5.12,3.413-8.533,8.533-8.533c5.12,0,8.533,3.413,8.533,8.533
		v307.2C511,447.853,507.587,451.267,502.467,451.267z"/>
	<path d="M442.733,511h-0.853L92.013,459.8c-4.267-0.853-7.68-5.12-6.827-9.387s5.12-7.68,9.387-6.827l349.867,51.2
		c4.267,0.853,7.68,5.12,6.827,9.387C450.413,507.587,447,511,442.733,511z"/>
	<path d="M442.733,451.267c-5.12,0-8.533-3.413-8.533-8.533c0-5.12,3.413-8.533,8.533-8.533c5.12,0,8.533,3.413,8.533,8.533
		C451.267,447.853,447.853,451.267,442.733,451.267"/>
	<path d="M374.467,84.333c-5.12,0-8.533-3.413-8.533-8.533s3.413-8.533,8.533-8.533c5.12,0,8.533,3.413,8.533,8.533
		C383,80.92,379.587,84.333,374.467,84.333"/>
	<path d="M374.467,203.8c-5.12,0-8.533-3.413-8.533-8.533c0-5.12,3.413-8.533,8.533-8.533c5.12,0,8.533,3.413,8.533,8.533
		C383,200.387,379.587,203.8,374.467,203.8"/>
	<path d="M92.867,459.8C40.813,459.8-1,417.987-1,365.933s41.813-93.867,93.867-93.867s93.867,41.813,93.867,93.867
		S144.92,459.8,92.867,459.8z M92.867,289.133c-42.667,0-76.8,34.133-76.8,76.8s34.133,76.8,76.8,76.8s76.8-34.133,76.8-76.8
		S135.533,289.133,92.867,289.133z"/>
	<path d="M425.667,135.533c0-5.12,3.413-8.533,8.533-8.533c5.12,0,8.533,3.413,8.533,8.533s-3.413,8.533-8.533,8.533
		C429.08,144.067,425.667,140.653,425.667,135.533"/>
	<path d="M306.2,135.533c0-5.12,3.413-8.533,8.533-8.533c5.12,0,8.533,3.413,8.533,8.533s-3.413,8.533-8.533,8.533
		C309.613,144.067,306.2,140.653,306.2,135.533"/>
	<path d="M340.333,92.867c0,5.12-3.413,8.533-8.533,8.533s-8.533-3.413-8.533-8.533s3.413-8.533,8.533-8.533
		S340.333,87.747,340.333,92.867"/>
	<path d="M425.667,178.2c0,5.12-3.413,8.533-8.533,8.533s-8.533-3.413-8.533-8.533c0-5.12,3.413-8.533,8.533-8.533
		S425.667,173.08,425.667,178.2"/>
	<path d="M408.6,92.867c0-5.12,3.413-8.533,8.533-8.533s8.533,3.413,8.533,8.533s-3.413,8.533-8.533,8.533
		S408.6,97.987,408.6,92.867"/>
	<path d="M331.8,186.733c-5.12,0-8.533-3.413-8.533-8.533c0-5.12,3.413-8.533,8.533-8.533s8.533,3.413,8.533,8.533
		C340.333,183.32,336.92,186.733,331.8,186.733"/>
	<path d="M374.467,237.933c-56.32,0-102.4-46.08-102.4-102.4s46.08-102.4,102.4-102.4s102.4,46.08,102.4,102.4
		S430.787,237.933,374.467,237.933z M374.467,50.2c-46.933,0-85.333,38.4-85.333,85.333s38.4,85.333,85.333,85.333
		s85.333-38.4,85.333-85.333S421.4,50.2,374.467,50.2z"/>
	<path d="M374.467,169.667c-18.773,0-34.133-15.36-34.133-34.133s15.36-34.133,34.133-34.133c18.773,0,34.133,15.36,34.133,34.133
		S393.24,169.667,374.467,169.667z M374.467,118.467c-9.387,0-17.067,7.68-17.067,17.067s7.68,17.067,17.067,17.067
		s17.067-7.68,17.067-17.067S383.853,118.467,374.467,118.467z"/>
	<path d="M92.867,408.6c-23.893,0-42.667-18.773-42.667-42.667c0-23.893,18.773-42.667,42.667-42.667s42.667,18.773,42.667,42.667
		C135.533,389.827,116.76,408.6,92.867,408.6z M92.867,340.333c-14.507,0-25.6,11.093-25.6,25.6s11.093,25.6,25.6,25.6
		s25.6-11.093,25.6-25.6S107.373,340.333,92.867,340.333z"/>
</g>
</svg>